<?xml version="1.0" encoding="UTF-8"?>
<!DOCTYPE svg PUBLIC "-//W3C//DTD SVG 1.1//EN" "http://www.w3.org/Graphics/SVG/1.1/DTD/svg11.dtd">
<!-- Creator: CorelDRAW 2020 (64-Bit) -->
<svg xmlns="http://www.w3.org/2000/svg" xml:space="preserve" width="2508px" height="741px" version="1.1" shape-rendering="geometricPrecision" text-rendering="geometricPrecision" image-rendering="optimizeQuality" fill-rule="evenodd" clip-rule="evenodd"
viewBox="0 0 2508 740.9"
 xmlns:xlink="http://www.w3.org/1999/xlink"
 xmlns:xodm="http://www.corel.com/coreldraw/odm/2003">
 <defs>
   <clipPath id="id0">
    <path d="M-0.84 2.25l2508.01 0 0 737.4 -2508.01 0 0 -737.4z"/>
   </clipPath>
 </defs>
 <g id="Capa_x0020_1">
  <metadata id="CorelCorpID_0Corel-Layer"/>
  <g>
  </g>
  <g clip-path="url(#id0)">
   <g>
    <path id="Lavanderia"  fill-rule="nonzero" d="M1107 587.09l60.26 0 0 34.61 -91.74 0 0 -177.84 31.48 0 0 143.23zm162.36 -143.23l61.3 177.84 -33.96 0 -13.26 -38.13 -62.33 0 -13.05 38.13 -34.17 0 61.3 -177.84 34.17 0zm2.28 105.1l-19.26 -55.94 -19.26 55.94 38.52 0zm169.2 -105.1l34.17 0 -61.92 177.84 -34.59 0 -61.71 -177.84 34.17 0 44.94 132.94 44.94 -132.94zm115.76 0l61.3 177.84 -33.96 0 -13.25 -38.13 -62.34 0 -13.05 38.13 -34.17 0 61.3 -177.84 34.17 0zm2.28 105.1l-19.26 -55.94 -19.26 55.94 38.52 0zm173.76 -105.1l31.47 0 0 177.84 -30.02 0 -70.42 -116.14 0 116.14 -31.48 0 0 -177.84 29.41 0 71.04 116.89 0 -116.89zm110.27 0c10.64,0 20.06,2.34 28.2,7.02 8.18,4.68 14.98,11.04 20.44,19.06 5.45,8.03 9.63,17.48 12.46,28.35 2.83,10.87 4.24,22.41 4.24,34.61 0,12.38 -1.48,23.96 -4.45,34.75 -2.97,10.78 -7.11,20.19 -12.36,28.21 -5.24,8.03 -11.46,14.34 -18.67,18.94 -7.18,4.6 -14.98,6.9 -23.44,6.9l-65.75 0 0 -177.84 59.33 0zm0.11 143.23c5.93,0 11.01,-1.47 15.22,-4.39 4.21,-2.93 7.7,-6.86 10.46,-11.88 2.76,-5.01 4.8,-10.78 6.11,-17.26 1.31,-6.53 1.96,-13.34 1.96,-20.53 0,-7.19 -0.62,-14.05 -1.86,-20.65 -1.24,-6.61 -3.24,-12.38 -6.01,-17.39 -2.76,-5.02 -6.28,-8.99 -10.56,-12 -4.28,-3.01 -9.39,-4.52 -15.32,-4.52l-27.96 0 0 108.62 27.96 0zm82.01 -143.23l91.74 0 0 34.61 -60.26 0 0 32.11 53.01 0 0 34.62 -53.01 0 0 41.89 60.26 0 0 34.61 -91.74 0 0 -177.84zm217.03 52.92c0,5.69 -0.65,11.08 -1.96,16.18 -1.31,5.1 -3.14,9.79 -5.49,14.05 -2.35,4.26 -5.18,8.03 -8.49,11.29 -3.32,3.26 -6.9,5.89 -10.77,7.9l48.67 75.5 -36.66 0 -45.35 -71.74 -14.09 0 0 71.74 -31.47 0 0 -177.84 63.37 0c5.8,0 11.28,1.38 16.46,4.14 5.18,2.76 9.67,6.52 13.46,11.28 3.8,4.77 6.8,10.37 9.01,16.81 2.21,6.44 3.31,13.34 3.31,20.69zm-46.18 18.57c4.01,0 7.46,-1.8 10.36,-5.4 2.9,-3.59 4.35,-7.98 4.35,-13.17 0,-5.01 -1.45,-9.32 -4.35,-12.91 -2.9,-3.6 -6.35,-5.4 -10.36,-5.4l-27.96 0 0 36.88 27.96 0zm136.27 -71.49l0 32.1 -10.97 0 0 113.89 10.97 0 0 31.85 -53.43 0 0 -31.85 10.98 0 0 -113.89 -10.98 0 0 -32.1 53.43 0zm-2.07 -56.69l-13.05 44.9 -21.12 0 2.9 -44.9 31.27 0zm111.63 56.69l61.3 177.84 -33.97 0 -13.25 -38.13 -62.34 0 -13.04 38.13 -34.18 0 61.3 -177.84 34.18 0zm2.27 105.1l-19.26 -55.94 -19.26 55.94 38.52 0z"/>
    <path id="Bellla"  fill-rule="nonzero" d="M1216.45 227.82c8.72,6.85 15.67,15.66 20.86,26.42 5.19,10.75 7.78,22.63 7.78,35.64 0,10.4 -1.76,20.15 -5.29,29.25 -3.53,9.1 -8.3,17.02 -14.32,23.76 -6.02,6.74 -13.03,12.06 -21.02,15.96 -7.99,3.9 -16.56,5.85 -25.69,5.85l-100.26 0 0 -251.43 97.15 0c8.3,0 16.09,1.84 23.35,5.5 7.27,3.66 13.65,8.57 19.15,14.72 5.5,6.14 9.81,13.35 12.92,21.63 3.12,8.27 4.67,17.14 4.67,26.6 0,10.16 -1.71,19.09 -5.14,26.77 -3.42,7.68 -8.14,14.13 -14.16,19.33zm-90.61 -20.22l49.82 0c5.6,0 10.38,-2.24 14.32,-6.74 3.95,-4.49 5.92,-9.92 5.92,-16.31 0,-6.38 -1.97,-11.7 -5.92,-15.96 -3.94,-4.25 -8.72,-6.38 -14.32,-6.38l-49.82 0 0 45.39zm52.93 108.16c6.23,0 11.52,-3.01 15.88,-8.98 4.36,-6.03 6.54,-13 6.54,-20.98 0,-8.22 -2.18,-15.13 -6.54,-20.81 -4.36,-5.61 -9.65,-8.45 -15.88,-8.45l-52.93 0 0 59.22 52.93 0zm92.48 -202.49l137.94 0 0 48.94 -90.61 0 0 45.39 79.71 0 0 48.94 -79.71 0 0 59.22 90.61 0 0 48.94 -137.94 0 0 -251.43zm214.85 202.49l90.61 0 0 48.94 -137.94 0 0 -251.43 47.33 0 0 202.49zm155.69 0l90.61 0 0 48.94 -137.94 0 0 -251.43 47.33 0 0 202.49zm244.11 -202.49l92.17 251.43 -51.07 0 -19.92 -53.9 -93.73 0 -19.61 53.9 -51.38 0 92.17 -251.43 51.37 0zm3.43 148.59l-28.96 -79.08 -28.96 79.08 57.92 0z"/>
    <path id="Logo_0"  d="M262.84 219.64c-4.13,2.59 -13.67,15.42 -17.17,20.02 -5.49,7.19 -11.26,14.13 -16.78,21.18l-99.95 127.26c4.95,6.48 16.95,18.94 23.85,24.36l73.28 72.37 22.84 -30.39c3.16,-4.3 4.71,-9.15 9.59,-10.12 1.26,2.72 6.04,20.1 6.9,23.52l26.67 98.1c3.22,12.01 19.16,67.29 19.97,74.43 8.72,-1.7 49.68,-16.69 58.52,-20.92 8.3,-3.97 18.67,-8.1 27.31,-11.7 9.6,-4.01 18.23,-9.07 27.17,-12.97 37.06,-16.17 115.37,-64.91 145.18,-90.22 17.45,-14.81 51.98,-39 55.12,-63.28 1.13,-8.75 -3.71,-24.99 -6.2,-33.04l-13 -45.7c-0.69,-2.59 -1.02,-5.36 -1.77,-8.02 -1.62,-5.75 -2.67,-2.71 -2.81,-7.21 11.08,1.2 36.52,15.77 49.9,18.52 1.22,-7.88 4.38,-13.2 6.06,-21.15 3.42,-16.25 27.29,-106.52 25.53,-111.07 -1.26,-3.26 -4.57,-3.69 -8.17,-4.45l-151.46 -57.13c-12.71,-4.59 -27.62,-11.22 -40.36,-14.89 -4.65,17.51 -0.36,12.9 -9.82,36.76 -10.82,27.29 -32.39,47.4 -57.14,61.08 -16.84,9.29 -37.65,12.74 -57.82,12.71 -30.38,-0.06 -64.01,-13.91 -83.87,-35.43 -3.41,-3.7 -7.86,-9.26 -11.57,-12.62zm427.24 -1.72c6.57,3.54 66.43,11.77 74.34,64.96 8.59,57.74 -35.46,105.87 -65.77,141.84 -7.29,8.65 -26.8,26.64 -35.04,34.41 -23.99,22.62 -82.72,65.9 -110.53,81.43 -4.49,2.5 -6.57,4.21 -10.76,6.6 -33.17,18.98 -55.23,31.69 -91.12,47.72 -57.11,25.5 -94.11,39.75 -155.68,54.71 -16.62,4.04 -71.52,13.65 -90.18,14.39 -4.16,0.16 -31.6,1.18 -32.95,1.8 7.99,3.27 58.99,2.27 70.03,1.15 64.66,-6.56 120.16,-20.09 180.42,-42.88 108.72,-41.12 197.43,-93.04 280.37,-166.56 6.65,-5.89 12.47,-12.71 18.4,-18.48 40.41,-39.34 100.93,-118.3 69.23,-174.37 -17.97,-31.81 -50.12,-39.66 -82.92,-46.88 -4.79,-1.06 -13.47,-2.55 -17.84,0.16zm85 13.56c20.01,1.73 37.12,11.46 48.99,20.59 11.49,8.84 22.53,24.23 25.88,43.39 8.76,50.16 -36.95,109.1 -66.4,141.51 -25.09,27.63 -44.68,42.88 -73.16,65.64 -95.38,76.23 -261.88,154.51 -387.62,169.88 -10.93,1.34 -58.59,4.19 -63.58,6.31 58.14,4.95 93.94,-0.79 150.15,-13.14 81.26,-17.85 187.52,-63 257.7,-106.56 15.57,-9.66 29.81,-19.58 44.31,-29.46 14.56,-9.92 28.66,-19.81 41.76,-30.9 41.83,-35.45 57.64,-47.98 91.1,-91.15 5.08,-6.55 10.21,-13.69 15.04,-21.86 17.78,-30.1 37.49,-72.74 15.17,-111.33 -20.97,-36.24 -89.21,-51.09 -99.34,-42.92zm-506.44 -19.11c1.63,2.52 9.54,12.63 12.64,14.43 5.75,-2.75 33.32,-41.13 38.09,-46.85l37.84 -46.85c4.77,-1.96 101.02,39.72 114.48,40.82 1.24,-6.08 2.93,-12.55 2.54,-19.06 -16.17,-7.22 -38.61,-16.21 -56.1,-21.74 -6.33,-2 -54.78,-20.34 -56.03,-22.07 -1.62,-6.7 -1.56,-5.85 -3.67,-11.48 10.37,-12.13 25.41,-19.67 19.41,-47.86 -3.4,-15.93 -19.53,-30.06 -38.02,-30.89 -22.93,-1.03 -41.65,19.2 -38.16,29.06 1.24,3.5 6.01,7.19 10.98,6.57 5.53,-0.7 7.3,-4.66 9.87,-7.87 5.11,-6.39 16.9,-9.27 26.63,-3.87 6.67,3.7 11.87,13.12 7.99,24.45 -6.48,18.92 -26.44,8.2 -19.24,30.26 1.5,4.58 1.74,9.67 3.54,13.99 2.67,6.42 -3.56,9.63 -11.71,20.5 -7.91,10.55 -59.67,74.35 -61.08,78.46zm-95.64 476.19c-4.74,-3 -16.48,-4.56 -32.68,-14.17 -35.12,-20.85 -40.82,-61.57 -27.15,-99.75 7.87,-21.97 22.08,-44.26 34.14,-60.18 12.17,-16.06 19.89,-24.39 33.21,-38.39 2.53,-2.66 10.19,-9.33 11.95,-12.04 -2.22,-4.15 -13.47,-15.69 -17.49,-17.48 -9.04,4.06 -47.5,46.95 -54.7,56.05 -47.05,59.54 -80.56,142.71 5.94,178.25 6.33,2.6 14.43,5.05 21.36,6.86 16.9,4.43 23.78,1.6 23.79,1.59l1.63 -0.74zm594.97 -613.32c-11.07,2.48 -19.52,4.32 -28.63,15.94 -24.36,31.07 -0.78,77.09 41.94,72.38 20.44,-2.25 42.11,-25.81 37.49,-50.41 -4.08,-21.75 -23.68,-43.99 -50.8,-37.91zm-126.07 541.8c-56.14,17.2 -32.24,101.77 25.24,86.45 20.46,-5.45 37.16,-30.83 29.87,-55.39 -6.02,-20.29 -27.32,-39.57 -55.11,-31.06zm262.51 -136.43c-9.61,3.21 -10.86,2.21 -16.33,9.92 -15.3,21.52 6.36,45.6 26.12,41.19 34.81,-7.77 21.07,-61.44 -9.79,-51.11zm-21.43 -291.5c-28.68,9.25 -21.47,42 -7.82,47.68 32.52,13.54 43.68,-16.56 39.2,-29.54 -4.16,-12.07 -16.16,-23.05 -31.38,-18.14zm-231.78 -66.83c-23.49,8.23 -10.53,36.95 7.11,32.17 20.41,-5.53 12.15,-38.93 -7.11,-32.17zm83.82 430.73c-23.46,4.71 -16.29,36.61 3.81,32.39 21.42,-4.49 13.59,-35.89 -3.81,-32.39zm-183.2 -144.21c-7.05,1.82 -34.63,22.8 -9.67,47.1 6.73,6.56 24.36,8.66 36.3,-4.93 5.4,-6.14 5.75,-11.22 4.75,-21.74 -1.24,-13 -18.43,-23.76 -31.38,-20.43zm-122.64 -43.7c-54.99,12.49 -42.4,98.18 18.95,87.6 10.37,-1.79 21.23,-10.52 25.88,-17.21 24.72,-35.55 -7.7,-78.82 -44.83,-70.39zm-72.89 205.01c-17.78,5.92 -12.37,24.84 -4.4,29.42 17.51,10.07 33.86,-14.47 16.98,-27.9 -3.09,-2.45 -8.82,-2.78 -12.58,-1.52zm45.44 -155.15c6.53,-0.9 4.34,-7.69 6.35,-14.16 3,-9.62 11.17,-17.59 20.72,-21.22 7.79,-2.96 14.19,0.29 14.85,-6.58 -20.73,-7.91 -51.51,21.17 -41.92,41.96z"/>
   </g>
  </g>

 </g>
</svg>
